# xmcd
#
# Track frame offsets:
#	150
#	16162
#	34664
#	60560
#	71537
# Disc length: 1165 seconds
# Revision: 1
# Processed by: cddbd v1.5.1PL0 Copyright (c) Steve Scherf et al.
#
# Submitted via: libkcddb 0.10
#
DISCID=36048b05
DTITLE=Sam Paglia - Sam Paglia plays for GATE parrucchieri
DYEAR=1900
DGENRE=Unknown
TTITLE0=Gate!
TTITLE1=Beloved (Alt. version)
TTITLE2=Soul Gasoline (live)
TTITLE3=Blues for Sefora
TTITLE4=The Worm
EXTD=Disco omaggio per i clienti GATE (parrucchieri di Formigine - MO)
EXTD=www.sampaglia.it
EXTD=www.gatenetwork.it
EXTT0=
EXTT1=
EXTT2=
EXTT3=
EXTT4=
PLAYORDER=
